<?xml version="1.0" encoding="UTF-8"?>
<svg width="24px" height="24px" viewBox="0 0 24 24" version="1.1" xmlns="http://www.w3.org/2000/svg" xmlns:xlink="http://www.w3.org/1999/xlink">
    <!-- Generator: Sketch 40.1 (33804) - http://www.bohemiancoding.com/sketch -->
    <title>cart</title>
    <desc>Created with Sketch.</desc>
    <defs></defs>
    <g id="icons" stroke="none" stroke-width="1" fill="none" fill-rule="evenodd">
        <g id="Mobile-Portrait" transform="translate(-98.000000, -13.000000)" fill="#000000">
            <g id="shopping-cart" transform="translate(101.000000, 16.000000)">
                <path d="M14.0327522,14.2193506 C14.4924882,14.2193506 14.8913765,14.3951324 15.2294172,14.7466945 C15.5674578,15.0982574 15.7364785,15.5039061 15.7364785,15.963642 C15.7364785,16.4233772 15.5674578,16.8222655 15.2294172,17.1603062 C14.8913765,17.4983476 14.4924882,17.6673676 14.0327522,17.6673676 C13.573017,17.6673676 13.1673676,17.4983476 12.8158055,17.1603062 C12.4642426,16.8222655 12.2884615,16.4233772 12.2884615,15.963642 C12.2884615,15.5039061 12.4642426,15.0982574 12.8158055,14.7466945 C13.1673676,14.3951324 13.573017,14.2193506 14.0327522,14.2193506 L14.0327522,14.2193506 Z M0.159555462,0.386718923 L2.99909838,0.386718923 L3.81039646,2.09044454 L16.6289061,2.09044454 C16.8722958,2.09044454 17.0751198,2.17833508 17.2373802,2.35411685 C17.3996391,2.52989792 17.4807692,2.739483 17.4807692,2.98287277 C17.4807692,3.11808877 17.4402042,3.25330546 17.3590747,3.38852146 L14.276142,8.98647854 C13.9516228,9.58143046 13.4513225,9.87890608 12.7752404,9.87890608 L6.32542085,9.87890608 L5.55468785,11.2986775 L5.51412277,11.4203728 C5.51412277,11.5555888 5.58173077,11.6231968 5.71694677,11.6231968 L15.7364785,11.6231968 L15.7364785,13.3674882 L5.35186315,13.3674882 C4.89212723,13.3674882 4.49323892,13.1917071 4.15519823,12.8401442 C3.81715754,12.4885814 3.64813685,12.0829327 3.64813685,11.6231968 C3.64813685,11.3527648 3.71574554,11.0823314 3.85096154,10.8118994 L5.02734392,8.66195931 L1.90384615,2.09044454 L0.159555462,2.09044454 L0.159555462,0.386718923 Z M5.35186315,14.2193506 C5.81159838,14.2193506 6.21724777,14.3951324 6.56880992,14.7466945 C6.92037277,15.0982574 7.09615385,15.5039061 7.09615385,15.963642 C7.09615385,16.4233772 6.92037277,16.8222655 6.56880992,17.1603062 C6.21724777,17.4983476 5.81159838,17.6673676 5.35186315,17.6673676 C4.89212723,17.6673676 4.49323892,17.4983476 4.15519823,17.1603062 C3.81715754,16.8222655 3.64813685,16.4233772 3.64813685,15.963642 C3.64813685,15.5039061 3.81715754,15.0982574 4.15519823,14.7466945 C4.49323892,14.3951324 4.89212723,14.2193506 5.35186315,14.2193506 L5.35186315,14.2193506 Z" id="Shape"></path>
            </g>
        </g>
    </g>
</svg>