<?xml version="1.0" encoding="UTF-8"?>
<svg width="24px" height="24px" viewBox="0 0 24 24" version="1.1" xmlns="http://www.w3.org/2000/svg" xmlns:xlink="http://www.w3.org/1999/xlink">
    <!-- Generator: Sketch 40.1 (33804) - http://www.bohemiancoding.com/sketch -->
    <title>cart</title>
    <desc>Created with Sketch.</desc>
    <defs></defs>
    <g id="icons" stroke="none" stroke-width="1" fill="none" fill-rule="evenodd">
        <g id="Mobile-Portrait" transform="translate(-13.000000, -13.000000)" fill="#000000">
            <g id="Group-2" transform="translate(16.000000, 15.000000)">
                <g id="shopping-bag-2.3.3.1">
                    <g id="Group">
                        <g id="Outline_Icons">
                            <g id="Group">
                                <path d="M17.5,8 L17,7.5 L17,19.5 L17.5,19 L0.5,19 L1,19.5 L1,7.5 L0.5,8 L17.5,8 Z M0,7 L0,7.5 L0,19.5 L0,20 L0.5,20 L17.5,20 L18,20 L18,19.5 L18,7.5 L18,7 L17.5,7 L0.5,7 L0,7 Z" id="Rectangle-path"></path>
                                <path d="M5,5 C5,2.79114237 6.79114237,1 9,1 C11.2094951,1 13,2.79077978 13,5 L13,6 L14,6 L14,5 C14,2.2385294 11.7618142,0 9,0 C6.23885763,0 4,2.23885763 4,5 L4,6 L5,6 L5,5 Z" id="Shape"></path>
                            </g>
                        </g>
                    </g>
                </g>
            </g>
        </g>
    </g>
</svg>