<?xml version="1.0" encoding="UTF-8"?>
<svg width="24px" height="24px" viewBox="0 0 24 24" version="1.1" xmlns="http://www.w3.org/2000/svg" xmlns:xlink="http://www.w3.org/1999/xlink">
    <!-- Generator: Sketch 40.1 (33804) - http://www.bohemiancoding.com/sketch -->
    <title>facebook</title>
    <desc>Created with Sketch.</desc>
    <defs></defs>
    <g id="icons" stroke="none" stroke-width="1" fill="none" fill-rule="evenodd">
        <g id="Mobile-Portrait" transform="translate(-13.000000, -86.000000)" fill="#000000">
            <g id="Group-3" transform="translate(15.000000, 88.000000)">
                <path d="M16.0714477,0.529057037 L3.70879538,0.529057037 C1.66123154,0.529057037 0,2.12876148 0,4.10048963 L0,16.0052659 C0,17.9769948 1.66123154,19.5766985 3.70879538,19.5766985 L10.5597654,19.5766985 L10.5597654,12.1982178 L7.98421308,12.1982178 L7.98421308,9.32123037 L10.5597654,9.32123037 L10.5597654,7.20069185 C10.5597654,4.74533185 12.1308523,3.40604444 14.4102162,3.40604444 C15.4919485,3.40604444 16.4320254,3.48044963 16.7024585,3.51765185 L16.7024585,6.08461926 L15.1313708,6.09702 C13.8822285,6.09702 13.6504285,6.6550563 13.6504285,7.48591037 L13.6504285,9.32123037 L16.5994362,9.32123037 L16.2131031,12.1982178 L13.6504285,12.1982178 L13.6504285,19.5766985 L16.0714477,19.5766985 C18.1190123,19.5766985 19.7802431,17.9769948 19.7802431,16.0052659 L19.7802431,4.10048963 C19.7802431,2.12876148 18.1190123,0.529057037 16.0714477,0.529057037 L16.0714477,0.529057037 Z" id="Shape"></path>
            </g>
        </g>
    </g>
</svg>