<?xml version="1.0" encoding="UTF-8"?>
<svg width="24px" height="24px" viewBox="0 0 24 24" version="1.1" xmlns="http://www.w3.org/2000/svg" xmlns:xlink="http://www.w3.org/1999/xlink">
    <!-- Generator: Sketch 40.1 (33804) - http://www.bohemiancoding.com/sketch -->
    <title>instagram</title>
    <desc>Created with Sketch.</desc>
    <defs></defs>
    <g id="icons" stroke="none" stroke-width="1" fill="none" fill-rule="evenodd">
        <g id="Mobile-Portrait" transform="translate(-74.000000, -86.000000)" fill="#000000">
            <g id="instagram" transform="translate(76.000000, 88.000000)">
                <path d="M13.4391689,10.0280763 C13.4391689,11.7765904 12.0130756,13.202683 10.2645615,13.202683 C8.51604741,13.202683 7.08995481,11.7765904 7.08995481,10.0280763 C7.08995481,8.27956222 8.51604741,6.85346963 10.2645615,6.85346963 C12.0130756,6.85346963 13.4391689,8.27956222 13.4391689,10.0280763 L13.4391689,10.0280763 Z M15.15048,10.0280763 C15.15048,7.3247 12.9679378,5.14215778 10.2645615,5.14215778 C7.56118519,5.14215778 5.37864296,7.3247 5.37864296,10.0280763 C5.37864296,12.7314526 7.56118519,14.9139948 10.2645615,14.9139948 C12.9679378,14.9139948 15.15048,12.7314526 15.15048,10.0280763 L15.15048,10.0280763 Z M16.4897674,4.94374444 C16.4897674,4.3113037 15.9813341,3.80287037 15.3488933,3.80287037 C14.7164519,3.80287037 14.2080185,4.3113037 14.2080185,4.94374444 C14.2080185,5.57618593 14.7164519,6.08461926 15.3488933,6.08461926 C15.9813341,6.08461926 16.4897674,5.57618593 16.4897674,4.94374444 L16.4897674,4.94374444 Z M10.2645615,2.21556667 C11.6534519,2.21556667 14.6296459,2.10396 15.8821281,2.59999185 C16.3161563,2.7736037 16.638577,2.98441704 16.9733993,3.31923926 C17.3082207,3.65406074 17.5190348,3.97648148 17.6926459,4.41051037 C18.1886785,5.66299185 18.0770711,8.63918593 18.0770711,10.0280763 C18.0770711,11.4169667 18.1886785,14.3931607 17.6926459,15.6456422 C17.5190348,16.0796711 17.3082207,16.4020919 16.9733993,16.7369133 C16.638577,17.0717356 16.3161563,17.2825489 15.8821281,17.4561607 C14.6296459,17.9521926 11.6534519,17.8405859 10.2645615,17.8405859 C8.87567111,17.8405859 5.89947704,17.9521926 4.64699556,17.4561607 C4.21296741,17.2825489 3.89054593,17.0717356 3.55572444,16.7369133 C3.22090222,16.4020919 3.01008889,16.0796711 2.83647704,15.6456422 C2.34044519,14.3931607 2.45205259,11.4169667 2.45205259,10.0280763 C2.45205259,8.63918593 2.34044519,5.66299185 2.83647704,4.41051037 C3.01008889,3.97648148 3.22090222,3.65406074 3.55572444,3.31923926 C3.89054593,2.98441704 4.21296741,2.7736037 4.64699556,2.59999185 C5.89947704,2.10396 8.87567111,2.21556667 10.2645615,2.21556667 L10.2645615,2.21556667 Z M19.7883822,10.0280763 C19.7883822,8.71359037 19.800783,7.41150593 19.7263785,6.09702 C19.6519733,4.57172074 19.3047511,3.22003259 18.1886785,2.10396 C17.0726052,0.987886667 15.720917,0.640664444 14.1956178,0.566259259 C12.8811319,0.491854815 11.5790474,0.504255556 10.2645615,0.504255556 C8.95007556,0.504255556 7.64799111,0.491854815 6.33350519,0.566259259 C4.80820593,0.640664444 3.45651778,0.987886667 2.34044519,2.10396 C1.22437259,3.22003259 0.87714963,4.57172074 0.802744444,6.09702 C0.72834,7.41150593 0.740740741,8.71359037 0.740740741,10.0280763 C0.740740741,11.3425622 0.72834,12.6446467 0.802744444,13.9591326 C0.87714963,15.4844319 1.22437259,16.83612 2.34044519,17.9521926 C3.45651778,19.0682659 4.80820593,19.4154881 6.33350519,19.4898933 C7.64799111,19.5642978 8.95007556,19.551897 10.2645615,19.551897 C11.5790474,19.551897 12.8811319,19.5642978 14.1956178,19.4898933 C15.720917,19.4154881 17.0726052,19.0682659 18.1886785,17.9521926 C19.3047511,16.83612 19.6519733,15.4844319 19.7263785,13.9591326 C19.800783,12.6446467 19.7883822,11.3425622 19.7883822,10.0280763 L19.7883822,10.0280763 Z" id="Shape"></path>
            </g>
        </g>
    </g>
</svg>