<?xml version="1.0" encoding="UTF-8"?>
<svg width="66px" height="24px" viewBox="0 0 66 24" version="1.1" xmlns="http://www.w3.org/2000/svg" xmlns:xlink="http://www.w3.org/1999/xlink">
    <!-- Generator: Sketch 40.1 (33804) - http://www.bohemiancoding.com/sketch -->
    <title>logomark</title>
    <desc>Created with Sketch.</desc>
    <defs></defs>
    <g id="icons" stroke="none" stroke-width="1" fill="none" fill-rule="evenodd">
        <g id="Mobile-Portrait" transform="translate(-137.000000, -14.000000)" fill="#000000">
            <path d="M169.910385,26.2477852 C164.616384,30.5138852 155.572697,34.3148571 148.340615,32.5629441 C145.236493,31.8080641 141.173274,29.2428124 142.14717,25.9055822 C142.819787,23.610211 146.955147,20.9858074 149.048609,23.5563735 C149.178091,23.7139579 150.054182,24.9298068 149.350119,24.986186 C148.987335,25.0152998 148.411599,23.9921567 148.01182,23.8329549 C146.341491,23.1688824 144.893826,24.7451882 144.803419,26.0989812 C144.687578,27.7818066 147.040467,28.2490142 148.477496,28.1251649 C150.117767,27.9832928 151.584624,27.277398 152.782572,26.2907627 C155.331535,24.1947982 157.463379,21.5091631 160.517556,19.9585052 C163.779369,18.3034072 166.89089,18.9739495 169.910385,20.6163391 L169.913622,20.6142595 C172.933579,18.9709457 176.046487,18.3022519 179.306219,19.9561946 C182.360628,21.5084699 184.495477,24.1943361 187.043053,26.2898385 C188.239383,27.2743942 189.707395,27.9825996 191.346973,28.1230854 C192.783308,28.2471657 195.138047,27.779496 195.02105,26.0969016 C194.928562,24.744495 193.484134,23.1688824 191.812186,23.8317996 C191.415182,23.9910014 190.836902,25.0129892 190.47435,24.9838753 C189.769131,24.9286515 190.64684,23.7109541 190.775167,23.5547561 C192.871403,20.9834968 197.005838,23.6090557 197.677762,25.9055822 C198.652352,29.2407329 194.589132,31.8080641 191.485011,32.5594781 C184.252466,34.3125465 175.208316,30.5122677 169.913622,26.2468609" id="Fill-1"></path>
        </g>
    </g>
</svg>