<?xml version="1.0" encoding="UTF-8"?>
<svg width="24px" height="24px" viewBox="0 0 24 24" version="1.1" xmlns="http://www.w3.org/2000/svg" xmlns:xlink="http://www.w3.org/1999/xlink">
    <!-- Generator: Sketch 40.1 (33804) - http://www.bohemiancoding.com/sketch -->
    <title>twitter</title>
    <desc>Created with Sketch.</desc>
    <defs></defs>
    <g id="icons" stroke="none" stroke-width="1" fill="none" fill-rule="evenodd">
        <g id="Mobile-Portrait" transform="translate(-44.000000, -86.000000)" fill="#000000">
            <g id="twitter-square" transform="translate(46.000000, 88.000000)">
                <path d="M16.4835362,6.50624667 C16.1229585,7.03948148 15.6593592,7.49831111 15.1313708,7.85793481 C15.1442485,7.96954222 15.1442485,8.08114963 15.1442485,8.1927563 C15.1442485,11.6401815 12.4141631,15.60844 7.44334692,15.60844 C5.91089308,15.60844 4.49433923,15.1744119 3.29670692,14.4427637 C3.50275154,14.4675659 3.72167308,14.4799667 3.94059538,14.4799667 C5.21549385,14.4799667 6.37449231,14.0583393 7.30169154,13.3638941 C6.11693692,13.3390919 5.12534923,12.582643 4.77765,11.5533756 C4.94506077,11.578177 5.11247154,11.6029793 5.27988231,11.6029793 C5.52456,11.6029793 5.70484846,11.5657763 5.93664846,11.5037726 C4.70038308,11.268157 3.70879538,10.2140881 3.70879538,8.94920593 L3.70879538,8.92440444 C4.12088385,9.1104163 4.54585,9.23442444 4.99657154,9.24682519 C4.26253923,8.77559481 3.82469538,7.98194296 3.82469538,7.0766837 C3.82469538,6.60545333 3.96635077,6.14662296 4.19815077,5.76219852 C5.53743769,7.34950148 7.53349077,8.37876889 9.78709923,8.4903763 C9.73558846,8.3043637 9.72271077,8.09355037 9.72271077,7.89513704 C9.72271077,6.4566437 10.9332208,5.29096741 12.4270408,5.29096741 C13.1997069,5.29096741 13.9079838,5.60098741 14.3973385,6.10942074 C15.0154715,5.99781333 15.5949708,5.77459926 16.1229585,5.47697926 C15.9169146,6.08461926 15.4919485,6.60545333 14.9253269,6.92787407 C15.4790708,6.85346963 15.9941815,6.71706074 16.4835362,6.50624667 L16.4835362,6.50624667 Z M19.7802431,4.10048963 C19.7802431,2.12876148 18.1190123,0.529057037 16.0714477,0.529057037 L3.70879538,0.529057037 C1.66123154,0.529057037 0,2.12876148 0,4.10048963 L0,16.0052659 C0,17.9769948 1.66123154,19.5766985 3.70879538,19.5766985 L16.0714477,19.5766985 C18.1190123,19.5766985 19.7802431,17.9769948 19.7802431,16.0052659 L19.7802431,4.10048963 Z" id="Shape"></path>
            </g>
        </g>
    </g>
</svg>