<?xml version="1.0" encoding="UTF-8"?>
<svg width="24px" height="24px" viewBox="0 0 24 24" version="1.1" xmlns="http://www.w3.org/2000/svg" xmlns:xlink="http://www.w3.org/1999/xlink">
    <!-- Generator: Sketch 40.1 (33804) - http://www.bohemiancoding.com/sketch -->
    <title>user</title>
    <desc>Created with Sketch.</desc>
    <defs></defs>
    <g id="icons" stroke="none" stroke-width="1" fill="none" fill-rule="evenodd">
        <g id="Mobile-Portrait" transform="translate(-40.000000, -13.000000)" fill="#000000">
            <g id="account-square.3.3.1" transform="translate(42.000000, 15.000000)">
                <g id="Group">
                    <g id="Outline_Icons_1_">
                        <g id="New_icons_1_">
                            <g id="Group">
                                <path d="M15.6428571,6.35714286 C15.6428571,3.24067891 13.1164639,0.714285714 10,0.714285714 C6.88353605,0.714285714 4.35714286,3.24067891 4.35714286,6.35714286 C4.35714286,9.4736068 6.88353605,12 10,12 C13.1164639,12 15.6428571,9.4736068 15.6428571,6.35714286 Z M5.35714286,6.35714286 C5.35714286,3.79296366 7.4358208,1.71428571 10,1.71428571 C12.5641792,1.71428571 14.6428571,3.79296366 14.6428571,6.35714286 C14.6428571,8.92132205 12.5641792,11 10,11 C7.4358208,11 5.35714286,8.92132205 5.35714286,6.35714286 Z" id="Oval"></path>
                                <path d="M10,12 C14.8934345,12 18.5,15.0550056 18.5,19.5 L19,19 L1,19 L1.5,19.5 C1.5,15.0553932 5.10737795,12 10,12 Z M0.5,20 L1,20 L19,20 L19.5,20 L19.5,19.5 C19.5,14.4625269 15.4123381,11 10,11 C4.58849172,11 0.5,14.4628891 0.5,19.5 L0.5,20 Z" id="Shape"></path>
                            </g>
                        </g>
                    </g>
                </g>
            </g>
        </g>
    </g>
</svg>